<?xml version="1.0" encoding="UTF-8" standalone="no"?>
<svg
   version="1.1"
   id="svg_gulucat"
   width="60"
   height="60"
   viewBox="0 0 60 60"
   xmlns:xlink="http://www.w3.org/1999/xlink"
   xmlns="http://www.w3.org/2000/svg"
   xmlns:svg="http://www.w3.org/2000/svg">
  <g>
    <path
      id="path1"
      fill="#282828"
      d="m 20.416408,55.062452 c 0,-0.760852 -3.614633,1.668253 -5.013158,0.722452 -0.404521,-0.273572 -0.45924,-0.948565 -0.345974,-1.423591 0.17259,-0.723823 1.44927,-1.697934 1.44927,-1.697934 l 2.470942,-1.465735 c 0,0 -1.979137,-2.862934 -2.667537,-4.449196 C 15.516338,44.919747 16.053944,42.428019 14.664087,40.998941 13.727772,40.036204 12.054034,40.31986 10.823122,39.782828 9.6405271,39.266876 8.4333456,38.715554 7.4566481,37.872464 6.6415381,37.168858 5.6051566,35.664388 5.4690999,35.325928 4.2508391,32.295338 3.4910562,27.861457 3.0928793,24.036542 2.9644753,22.803085 2.6526874,20.570549 3.0928792,20.316174 3.6922396,19.958817 6.576589,22.30979 6.576589,22.30979 L 9.6887818,25 12.902474,24.442724 17.602235,23.885449 19.347219,22 c 4.295727,-4.641517 5.013922,-4.368436 4.43817,2.574383 l -0.462271,5.574382 1.588441,-0.486947 c 0.873643,-0.26782 3.545407,-2.214001 6.845407,-3.416692 0,0 4.454025,-1.233739 6.743034,-1.443677 1.498749,-0.137459 3.022767,-0.08173 4.513348,0.126384 1.411022,0.197009 4.141831,1.055176 4.141831,1.055176 l -0.693054,-3.241505 c -1.011384,-4.730376 -3.172006,-7.051362 -5.85531,-9.715353 -1.094423,-1.086546 -2.520119,-1.861486 -3.979687,-2.359484 -1.439333,-0.491094 -3.007473,-0.565504 -4.528257,-0.557276 -1.397956,0.0076 -2.800875,0.216731 -4.156739,0.557276 -1.329377,0.333893 -2.578914,0.931409 -3.850031,1.444235 -1.65493,0.667675 -3.143937,2.351128 -4.914031,2.124515 -1.399069,-0.179114 -2.733839,-1.327879 -3.335729,-2.603498 -0.332012,-0.703651 -0.152518,-1.585283 0.06145,-2.3333293 C 16.094981,8.630183 16.502811,8.0239884 16.95971,7.5 17.919706,6.3990428 19.178693,5.5865843 20.401477,4.7875241 21.697759,3.9404348 23.036594,3.1067625 24.5,2.6004526 26.424468,1.9346244 28.483473,1.674166 30.514816,1.5308089 c 2.186608,-0.1543145 4.411565,-0.1397245 6.572092,0.2306658 1.641519,0.281414 3.232516,0.8495091 4.76657,1.4979341 1.434224,0.6062278 2.872793,1.274695 4.109813,2.2203652 1.47583,1.1282347 3.842337,4.0367479 3.842337,4.0367479 2.113286,2.4008191 4.371545,6.1314641 5.018355,8.2903211 0,0 0.95377,2.577538 1.176017,3.925196 0.489291,2.966962 0.445499,6.010801 0.322778,9.015332 C 56.148091,35.024162 55.462088,41.3 54.818272,43.5 c -0.643815,2.2 -2.169556,5.083442 -1.669251,5.85698 0,0 1.057483,0.892943 0.946185,1.462927 -0.177054,0.906734 -1.391075,1.305767 -2.270109,1.590046 -1.404513,0.454219 -5.352114,1.477651 -6.838915,1.519448 -0.535456,0.01505 -1.169429,-0.6171 -1.042181,-1.284364 0.151747,-0.795732 1.081092,-1.641394 0.35085,-1.498922 l -2.203416,0.429894 -2.687172,0.301963 -8.501691,3.14733 c -4.542938,1.681797 -6.399082,3.093857 -9.856845,3.680809 -0.703,0.119334 -1.579346,0.397114 -2.138695,-0.04513 -0.367992,-0.290948 -0.456001,-0.904457 -0.353475,-1.36223 0.212036,-0.946727 1.862851,-2.074883 1.862851,-2.236301 z"
        />
  </g>
</svg>
